<svg width="36" height="36" viewBox="0 0 36 36" fill="none" xmlns="http://www.w3.org/2000/svg">
<path d="M5.29143 32.0971L2.46375 0.380249H33.5362L30.7057 32.0923L17.9812 35.62L5.29143 32.0971V32.0971Z" fill="#1572B6"/>
<path d="M18.0003 32.9237L28.2825 30.073L30.7015 2.97339H18.0003V32.9237Z" fill="#33A9DC"/>
<path d="M18.0003 14.4644H23.1477L23.5032 10.481H18.0003V6.59106H27.7546L27.6612 7.63478L26.705 18.3543H18.0003V14.4644V14.4644Z" fill="white"/>
<path d="M18.0233 24.5669L18.0062 24.572L13.6741 23.4023L13.397 20.2998H9.49274L10.0375 26.4077L18.0056 28.6192L18.0233 28.6141V24.5669V24.5669Z" fill="#EBEBEB"/>
<path d="M22.817 18.1898L22.3484 23.3991L18.0099 24.5703V28.6174L25.9844 26.4074L26.0429 25.7501L26.7196 18.1898H22.817Z" fill="white"/>
<path d="M18.0135 6.59106V10.481H8.6175L8.5396 9.60691L8.36241 7.63478L8.26932 6.59106H18.0135V6.59106ZM18.0003 14.4649V18.3549H13.7228L13.6448 17.4808L13.4674 15.5087L13.3746 14.4649H18.0003V14.4649Z" fill="#EBEBEB"/>
</svg>
