<svg width="36" height="36" viewBox="0 0 36 36" fill="none" xmlns="http://www.w3.org/2000/svg">
<path d="M11.3991 21.8869V14.2706H11.8125V15.4688C11.8613 15.4157 11.9064 15.3593 11.9475 15.3C12.1164 14.9493 12.3818 14.6541 12.7126 14.4488C13.0434 14.2436 13.4258 14.1369 13.815 14.1413C14.7572 14.1131 15.5222 14.4619 15.9722 15.3C16.2585 15.8207 16.4161 16.4023 16.4317 16.9963C16.4474 17.5902 16.3207 18.1794 16.0622 18.7144C15.6431 19.6538 14.6081 20.1206 13.5 19.9491C13.1552 19.9197 12.8232 19.8044 12.5343 19.6138C12.2454 19.4232 12.0089 19.1633 11.8462 18.8578V21.8869H11.3991ZM11.8125 16.965C11.8491 17.3363 11.8631 17.6006 11.9053 17.8594C12.0684 18.8775 12.6703 19.4822 13.6153 19.5919C14.059 19.6648 14.5143 19.5816 14.9036 19.3565C15.2928 19.1313 15.592 18.7782 15.75 18.3572C15.9316 17.9242 16.019 17.4575 16.0064 16.9881C15.9938 16.5187 15.8815 16.0573 15.6769 15.6347C15.5082 15.2574 15.2213 14.9452 14.8595 14.7453C14.4978 14.5454 14.0808 14.4686 13.6716 14.5266C13.2873 14.5544 12.9213 14.7013 12.6244 14.9467C12.3276 15.1922 12.1145 15.5241 12.015 15.8963C11.9269 16.2483 11.8593 16.6051 11.8125 16.965V16.965ZM24.8653 18C24.8027 18.5362 24.5474 19.0315 24.147 19.3936C23.7466 19.7557 23.2283 19.9601 22.6884 19.9688C20.9559 20.0559 20.1431 18.9056 20.0137 17.5781C19.924 16.8572 20.041 16.1256 20.3512 15.4688C20.5673 15.0182 20.9211 14.648 21.3615 14.4119C21.8019 14.1758 22.3061 14.0859 22.8009 14.1553C23.2714 14.1952 23.7174 14.3821 24.0758 14.6895C24.4342 14.9969 24.6868 15.4092 24.7978 15.8681C24.8858 16.2861 24.9506 16.7086 24.9919 17.1338H20.4384C20.3541 18.3375 21.0009 19.305 21.9178 19.5384C23.0597 19.8197 24.0356 19.3247 24.39 18.2391C24.4687 17.9606 24.6122 17.9213 24.8653 18ZM20.4384 16.7484H24.5081C24.4828 15.4659 23.6841 14.5378 22.6012 14.5238C21.375 14.5041 20.4919 15.3984 20.4384 16.7484ZM25.7034 18.0281H26.1028C26.1176 18.322 26.2131 18.6061 26.3788 18.8492C26.5445 19.0924 26.774 19.2851 27.0422 19.4063C27.3789 19.5578 27.7454 19.6314 28.1145 19.6217C28.4837 19.6119 28.8458 19.5191 29.1741 19.35C29.3529 19.2694 29.5028 19.1358 29.6034 18.9673C29.704 18.7988 29.7504 18.6035 29.7366 18.4078C29.7468 18.219 29.6953 18.0321 29.5897 17.8752C29.4842 17.7184 29.3303 17.6003 29.1516 17.5388C28.7128 17.3756 28.2459 17.2856 27.7987 17.1422C27.3335 17.0097 26.8785 16.8433 26.4375 16.6444C25.7175 16.2928 25.6725 14.9231 26.4881 14.49C26.9058 14.2543 27.3758 14.127 27.8553 14.1196C28.3347 14.1123 28.8084 14.2251 29.2331 14.4478C29.4904 14.59 29.6982 14.8072 29.8288 15.0705C29.9595 15.3338 30.0068 15.6307 29.9644 15.9216H29.6212C29.6212 15.9047 29.5903 15.8906 29.5903 15.8738C29.5481 14.7797 28.6312 14.4422 27.6469 14.5378C27.353 14.5741 27.0676 14.6606 26.8031 14.7938C26.6442 14.8664 26.5118 14.9866 26.4242 15.1377C26.3365 15.2889 26.2979 15.4635 26.3137 15.6375C26.3142 15.8116 26.3686 15.9812 26.4693 16.1232C26.57 16.2652 26.7121 16.3726 26.8762 16.4306C27.3094 16.5881 27.7622 16.6894 28.2066 16.8131C28.5637 16.9116 28.935 16.9763 29.2809 17.0944C29.5251 17.1744 29.7392 17.3267 29.8949 17.5311C30.0506 17.7355 30.1405 17.9824 30.1528 18.2391C30.1946 18.5203 30.1466 18.8075 30.0159 19.0599C29.8851 19.3124 29.6782 19.5172 29.4244 19.6453C28.485 20.1769 26.9381 20.0363 26.2491 19.3641C26.0744 19.1884 25.9363 18.98 25.8427 18.7507C25.749 18.5214 25.7017 18.2758 25.7034 18.0281ZM35.2153 15.9216H34.8412C34.8412 15.8709 34.8216 15.8259 34.8159 15.7838C34.8099 15.5034 34.7077 15.2336 34.5264 15.0196C34.3452 14.8055 34.0959 14.6603 33.8203 14.6081C33.3004 14.4589 32.7457 14.4856 32.2425 14.6841C32.0436 14.7411 31.8685 14.8609 31.7433 15.0257C31.6181 15.1904 31.5495 15.3912 31.5478 15.5981C31.5408 15.8013 31.6042 16.0007 31.7271 16.1626C31.8501 16.3246 32.0252 16.4391 32.2228 16.4869C32.7853 16.6613 33.3619 16.7681 33.9328 16.9256C34.1178 16.97 34.3 17.0254 34.4784 17.0916C34.7448 17.1869 34.9763 17.3603 35.1426 17.5893C35.3088 17.8182 35.4022 18.092 35.4104 18.3749C35.4186 18.6577 35.3413 18.9364 35.1886 19.1746C35.0358 19.4128 34.8148 19.5994 34.5544 19.71C34.1575 19.8902 33.7273 19.9856 33.2914 19.9899C32.8555 19.9943 32.4235 19.9076 32.0231 19.7353C31.6938 19.5933 31.416 19.3538 31.2269 19.0491C31.0378 18.7444 30.9466 18.389 30.9656 18.0309H31.1231H31.3312C31.3989 18.3573 31.5451 18.6622 31.7571 18.9193C31.9691 19.1764 32.2406 19.378 32.5481 19.5065C32.8556 19.635 33.1898 19.6867 33.5217 19.657C33.8537 19.6272 34.1734 19.5171 34.4531 19.3359C34.6235 19.2474 34.765 19.1118 34.8607 18.9453C34.9564 18.7788 35.0024 18.5884 34.9931 18.3966C35.0016 18.2077 34.9482 18.0212 34.8411 17.8654C34.7341 17.7095 34.5791 17.5929 34.3997 17.5331C33.9609 17.37 33.4941 17.2828 33.0469 17.1394C32.5789 17.0089 32.1211 16.8444 31.6772 16.6472C30.9741 16.3013 30.9178 14.9428 31.7194 14.5097C32.1422 14.2641 32.6214 14.1322 33.1103 14.1268C33.5992 14.1214 34.0812 14.2426 34.5094 14.4788C34.7542 14.6249 34.9513 14.8391 35.0767 15.0953C35.202 15.3515 35.2502 15.6385 35.2153 15.9216V15.9216ZM10.7156 19.8309C10.5684 19.8867 10.4058 19.8866 10.2586 19.8306C10.1114 19.7746 9.98987 19.6667 9.91687 19.5272C9.45843 18.8409 8.95219 18.1856 8.46562 17.5163L8.25469 17.235C7.67531 18.0113 7.09594 18.7566 6.56719 19.53C6.49829 19.6633 6.38329 19.7671 6.24359 19.8219C6.10389 19.8768 5.94901 19.879 5.80781 19.8281L7.98187 16.9116L5.95969 14.2763C6.10525 14.2237 6.26449 14.223 6.41052 14.2742C6.55656 14.3255 6.68044 14.4255 6.76125 14.5575C7.23094 15.2438 7.75125 15.8991 8.26875 16.5938C8.78906 15.9047 9.30375 15.2466 9.78469 14.5659C9.85395 14.4348 9.96902 14.3336 10.108 14.2818C10.247 14.2299 10.4002 14.231 10.5384 14.2847L9.75375 15.3253C9.40218 15.7894 9.05625 16.2563 8.69062 16.7091C8.66116 16.7354 8.63759 16.7677 8.62146 16.8038C8.60532 16.8399 8.59698 16.879 8.59698 16.9186C8.59698 16.9581 8.60532 16.9972 8.62146 17.0333C8.63759 17.0695 8.66116 17.1017 8.69062 17.1281C9.36281 18.0197 10.0294 18.9141 10.7156 19.8309ZM19.9462 14.2481V14.6419C19.6618 14.6232 19.3766 14.6644 19.109 14.7628C18.8415 14.8612 18.5975 15.0146 18.3929 15.2131C18.1883 15.4116 18.0276 15.6508 17.9212 15.9153C17.8147 16.1797 17.7649 16.4635 17.775 16.7484C17.775 17.6747 17.775 18.6009 17.775 19.5272C17.775 19.6256 17.775 19.7241 17.775 19.8422H17.3728V14.2706H17.7666V15.4125C18.2531 14.58 19.0041 14.2706 19.9462 14.2481ZM0.59906 16.875C0.658123 16.5938 0.694685 16.2872 0.776248 16.0003C1.26281 14.2706 3.24562 13.5506 4.60968 14.6222C5.40843 15.2494 5.60812 16.1381 5.56875 17.1394H1.06875C0.995623 18.9281 2.28656 20.0081 3.9375 19.4569C4.2053 19.3611 4.44504 19.2001 4.63506 18.9885C4.82509 18.7768 4.95942 18.5212 5.02594 18.2447C5.11312 17.9634 5.25375 17.9156 5.52094 17.9972C5.47692 18.3396 5.35586 18.6675 5.16685 18.9564C4.97784 19.2453 4.7258 19.4876 4.42969 19.665C3.94042 19.9326 3.37909 20.0385 2.82595 19.9678C2.27282 19.8971 1.75621 19.6533 1.35 19.2713C0.948135 18.8194 0.705149 18.2485 0.658123 17.6456C0.658123 17.55 0.62156 17.4544 0.601873 17.3644C0.599998 17.1975 0.59906 17.0344 0.59906 16.875ZM1.07437 16.7541H5.14406C5.11875 15.4575 4.30031 14.5378 3.20906 14.5294C1.99406 14.5125 1.125 15.4125 1.07156 16.7484L1.07437 16.7541Z" fill="black"/>
</svg>
