<svg width="20" height="20" viewBox="0 0 20 20" fill="none" xmlns="http://www.w3.org/2000/svg">
<path d="M13.5685 6.12903C12.9839 2.52823 11.6048 0 10 0C8.39516 0 7.01613 2.52823 6.43145 6.12903H13.5685ZM6.12903 10C6.12903 10.8952 6.17742 11.754 6.2621 12.5806H13.7339C13.8185 11.754 13.8669 10.8952 13.8669 10C13.8669 9.10484 13.8185 8.24597 13.7339 7.41935H6.2621C6.17742 8.24597 6.12903 9.10484 6.12903 10ZM19.2218 6.12903C18.0686 3.39113 15.7339 1.27419 12.8508 0.419355C13.8347 1.78226 14.5121 3.83468 14.8669 6.12903H19.2218ZM7.14516 0.419355C4.26613 1.27419 1.92742 3.39113 0.778226 6.12903H5.13306C5.48387 3.83468 6.16129 1.78226 7.14516 0.419355ZM19.6532 7.41935H15.0282C15.1129 8.26613 15.1613 9.13306 15.1613 10C15.1613 10.8669 15.1129 11.7339 15.0282 12.5806H19.6492C19.871 11.754 19.996 10.8952 19.996 10C19.996 9.10484 19.871 8.24597 19.6532 7.41935ZM4.83871 10C4.83871 9.13306 4.8871 8.26613 4.97177 7.41935H0.346774C0.129032 8.24597 0 9.10484 0 10C0 10.8952 0.129032 11.754 0.346774 12.5806H4.96774C4.8871 11.7339 4.83871 10.8669 4.83871 10ZM6.43145 13.871C7.01613 17.4718 8.39516 20 10 20C11.6048 20 12.9839 17.4718 13.5685 13.871H6.43145ZM12.8548 19.5806C15.7339 18.7258 18.0726 16.6089 19.2258 13.871H14.871C14.5161 16.1653 13.8387 18.2177 12.8548 19.5806ZM0.778226 13.871C1.93145 16.6089 4.26613 18.7258 7.14919 19.5806C6.16532 18.2177 5.4879 16.1653 5.13306 13.871H0.778226Z" fill="#006CFA"/>
</svg>
