<svg width="36" height="36" viewBox="0 0 36 36" fill="none" xmlns="http://www.w3.org/2000/svg">
<path d="M4.99219 32.3438L2.10938 0H33.8203L30.9375 32.3438L17.9297 36" fill="#E34F26"/>
<path d="M18 33.1875L28.4766 30.3047L30.9375 2.60156H18" fill="#EF652A"/>
<path d="M18 14.625H12.7266L12.375 10.5469H18V6.60938H8.01562L9.07031 18.6328H18V14.625ZM17.9297 24.9609L13.5 23.7656L13.2188 20.6016H9.28125L9.77344 26.8594L17.9297 29.1094V24.9609Z" fill="#EBEBEB"/>
<path d="M17.9297 14.625V18.6328H22.8516L22.3594 23.7656L17.9297 24.9609V29.1094L26.0859 26.8594L27.2109 14.625H17.9297ZM17.9297 6.60938V10.5469H27.5625L27.9141 6.60938H17.9297Z" fill="white"/>
</svg>
