<svg width="36" height="36" viewBox="0 0 36 36" fill="none" xmlns="http://www.w3.org/2000/svg">
<g clip-path="url(#clip0_9_156)">
<path d="M35.9895 0H0.0105469C0.004722 0 0 0.004722 0 0.0105469V35.9895C0 35.9953 0.004722 36 0.0105469 36H35.9895C35.9953 36 36 35.9953 36 35.9895V0.0105469C36 0.004722 35.9953 0 35.9895 0Z" fill="#F7DF1E"/>
<path d="M22.7812 26.0156C23.4844 27.2109 24.4688 28.0547 26.0859 28.0547C27.4922 28.0547 28.4062 27.3516 28.4062 26.3672C28.4062 25.2422 27.4922 24.8203 25.9453 24.1172L25.1016 23.7656C22.6406 22.7109 21.0234 21.4453 21.0234 18.7031C21.0234 16.1719 22.9219 14.2031 25.9453 14.2031C28.125 14.2031 29.6719 14.9766 30.7266 16.9453L28.125 18.6328C27.5625 17.5781 26.9297 17.1562 25.9453 17.1562C24.9609 17.1562 24.3281 17.7891 24.3281 18.6328C24.3281 19.6172 24.9609 20.0391 26.4375 20.6719L27.2812 21.0234C30.1641 22.2891 31.7812 23.4844 31.7812 26.3672C31.7812 29.3906 29.3906 31.0781 26.1562 31.0781C22.9922 31.0781 20.9531 29.6016 19.9688 27.6328L22.7812 26.0156ZM10.8281 26.2969C11.3906 27.2109 11.8125 28.0547 13.0078 28.0547C14.1328 28.0547 14.8359 27.6328 14.8359 25.9453V14.2734H18.2109V25.8047C18.2109 29.3203 16.1719 30.8672 13.1484 30.8672C10.4062 30.8672 8.85938 29.4609 8.08594 27.7734L10.8281 26.2969Z" fill="black"/>
</g>
<defs>
<clipPath id="clip0_9_156">
<rect width="36" height="36" fill="white"/>
</clipPath>
</defs>
</svg>
