<svg width="36" height="36" viewBox="0 0 36 36" fill="none" xmlns="http://www.w3.org/2000/svg">
<g clip-path="url(#clip0_9_178)">
<path d="M35.5781 18.0618C35.5781 27.7696 27.7078 35.6399 18 35.6399C8.29216 35.6399 0.421875 27.7696 0.421875 18.0618C0.421875 8.35396 8.29216 0.483673 18 0.483673C27.7078 0.483673 35.5781 8.35396 35.5781 18.0618Z" fill="#004BAD"/>
<path d="M28.5019 19.4755V26.723H24.3005V19.962C24.3005 18.2637 23.6946 17.104 22.1722 17.104C21.0126 17.104 20.3224 17.8858 20.018 18.6417C19.9063 18.911 19.8788 19.2858 19.8788 19.6653V26.7231H15.6759C15.6759 26.7231 15.7325 15.2711 15.6759 14.0856H19.8788V15.877C19.8712 15.8908 19.8589 15.9043 19.8512 15.9181H19.8788V15.877C20.4373 15.0173 21.4332 13.7886 23.6655 13.7886C26.4303 13.7886 28.5019 15.5954 28.5019 19.4755ZM11.2818 7.99438C9.84355 7.99438 8.90417 8.9384 8.90417 10.1777C8.90417 11.391 9.81606 12.3609 11.2267 12.3609H11.2528C12.7185 12.3609 13.6304 11.391 13.6304 10.1777C13.6028 8.93847 12.7185 7.99438 11.2818 7.99438ZM9.15357 26.7231H13.3534V14.0856H9.15357V26.7231Z" fill="white"/>
</g>
<defs>
<clipPath id="clip0_9_178">
<rect width="36" height="36" fill="white"/>
</clipPath>
</defs>
</svg>
