<svg width="36" height="36" viewBox="0 0 36 36" fill="none" xmlns="http://www.w3.org/2000/svg">
<path fill-rule="evenodd" clip-rule="evenodd" d="M34.6663 21.5955C34.5398 20.7748 33.8504 20.2373 33.0486 20.2011C32.7583 20.1878 32.4636 20.2182 32.1742 20.2551C31.8246 20.2995 31.4792 20.3782 31.1304 20.4303C30.8894 20.4663 30.645 20.4829 30.4042 20.5076L30.3983 20.4764C30.8478 19.6276 31.3161 18.7881 31.7413 17.9272C32.0673 17.2668 32.3463 16.5825 32.6346 15.9038C33.1116 14.7794 33.4927 13.6201 33.8082 12.4419C34.1106 11.3138 34.3693 10.1734 34.4506 9.00309C34.4832 8.53566 34.5057 8.06625 34.5032 7.59825C34.5009 7.22503 34.4607 6.85125 34.4233 6.47916C34.3811 6.05278 34.2523 5.64863 34.074 5.25966C33.8389 4.74722 33.4744 4.32675 33.0907 3.92737C32.7836 3.60759 32.4458 3.31622 32.1109 3.02512C31.6333 2.60972 31.0964 2.27813 30.5387 1.98366C29.905 1.64897 29.239 1.38712 28.5446 1.21022C28.1247 1.10306 27.6952 1.02347 27.27 0.938531C27.117 0.907594 26.9637 0.84375 26.8107 0.84375H23.9304C23.8264 0.84375 23.7232 0.897469 23.6182 0.909281C22.9286 0.986063 22.2472 1.116 21.5854 1.32103C21.3379 1.39781 21.1117 1.34944 20.8766 1.32778C20.6963 1.31119 20.5192 1.26281 20.3389 1.25381C19.6521 1.2195 18.9644 1.16916 18.2779 1.17647C17.62 1.18322 16.9689 1.2915 16.3322 1.47234C15.7992 1.62366 15.2778 1.80844 14.8002 2.08856C14.5958 2.20838 14.4338 2.18587 14.2223 2.12484C13.5115 1.91981 12.7958 1.72716 12.0738 1.56544C11.6238 1.46475 11.1611 1.41469 10.7016 1.36659C10.2611 1.32075 9.81731 1.29319 9.37463 1.28391C8.94206 1.27463 8.50641 1.27491 8.07581 1.31316C7.38984 1.37419 6.71681 1.51369 6.06262 1.73869C5.33616 1.98844 4.67016 2.35041 4.06969 2.82572C3.46022 3.30806 2.97141 3.897 2.57822 4.56947C2.16394 5.27906 1.87988 6.03872 1.70325 6.83663C1.60763 7.26891 1.54716 7.71328 1.48163 8.15231C1.46109 8.289 1.6875 8.42569 1.40625 8.56181V10.4726C1.6875 10.5998 1.46475 10.7266 1.48106 10.854C1.52016 11.1603 1.55475 11.4691 1.6065 11.7731C1.68834 12.2543 1.78537 12.7342 1.88437 13.2123C2.02247 13.8803 2.16619 14.5477 2.31919 15.2123C2.43056 15.696 2.55741 16.1769 2.69016 16.6553C2.89294 17.386 3.09262 18.1181 3.32184 18.8407C3.53475 19.512 3.77859 20.1738 4.02047 20.8356C4.35544 21.751 4.7565 22.637 5.23744 23.4861C5.65341 24.2212 6.12872 24.9098 6.76631 25.4762C7.1865 25.8494 7.65422 26.1363 8.19872 26.2797C8.6265 26.3922 9.06131 26.4057 9.49922 26.316C10.0069 26.2119 10.4563 25.9934 10.856 25.666C10.9018 25.6283 10.9522 25.5997 11.0064 25.6688C11.2132 25.9307 11.4899 26.1053 11.7793 26.2564C12.5603 26.6636 13.4114 26.7857 14.276 26.8355C14.4852 26.8476 14.6967 26.8175 14.9077 26.8116C15.3186 26.8003 15.7179 26.7202 16.1108 26.6065C16.3167 26.5469 16.5178 26.4713 16.7273 26.4007C16.7383 26.6237 16.7524 26.8386 16.7588 27.0534L16.7881 28.2251C16.7934 28.4034 16.8005 28.5823 16.8171 28.7598C16.8595 29.2174 16.9012 29.6753 16.9557 30.1314C16.9937 30.4459 17.0331 30.7628 17.107 31.0697C17.2558 31.6893 17.4575 32.2926 17.714 32.8776C17.9657 33.4516 18.3277 33.9362 18.8108 34.3358C19.4352 34.8522 20.167 35.0724 20.9573 35.1132C21.2842 35.1304 21.6202 35.1143 21.942 35.0558C22.4519 34.9633 22.9607 34.8469 23.4571 34.6972C24.4671 34.3924 25.3401 33.8659 25.9923 33.0151C26.3635 32.5302 26.6684 32.0057 26.8642 31.4266C27.0256 30.9482 27.1777 30.465 27.2987 29.9753C27.3943 29.5895 27.4416 29.1915 27.4998 28.7975C27.5383 28.5367 27.5614 28.2735 27.5856 28.0108C27.6249 27.5842 27.6652 27.1578 27.6936 26.7303C27.7133 26.4327 27.7124 26.1338 27.7242 25.8356C27.7279 25.7448 27.7425 25.6545 27.7509 25.5639C27.7588 25.4801 27.801 25.4512 27.8865 25.4526C28.1877 25.4571 28.4895 25.4649 28.7899 25.4514C29.1265 25.4363 29.4663 25.4219 29.7976 25.3662C30.2692 25.2872 30.7387 25.1873 31.201 25.0661C31.7475 24.9233 32.2487 24.6673 32.731 24.3757C33.293 24.0362 33.8051 23.6379 34.2208 23.1249C34.5822 22.6775 34.7535 22.1602 34.6663 21.5955V21.5955ZM33.7067 21.8717C33.6881 22.129 33.5703 22.3495 33.3993 22.538C32.5924 23.4276 31.5802 23.9673 30.4222 24.2331C29.9824 24.3338 29.5284 24.3861 29.0782 24.4277C28.6948 24.4631 28.3058 24.469 27.9211 24.455C27.6382 24.4443 27.3575 24.3796 27.0683 24.338C27.0394 24.6023 27.0118 24.8777 26.9783 25.1525L26.8436 26.2058C26.8028 26.5396 26.7711 26.8746 26.7292 27.2081C26.6881 27.5318 26.6369 27.8544 26.5939 28.1782C26.5537 28.4797 26.5241 28.7826 26.4794 29.0835C26.4105 29.5447 26.3447 30.0071 26.2547 30.4647C26.1467 31.0118 25.981 31.5416 25.7108 32.0349C25.3811 32.6371 24.9137 33.0958 24.3188 33.4356C23.7057 33.786 23.0355 33.9683 22.356 34.1207C21.8751 34.2287 21.3795 34.2464 20.8924 34.2025C20.0475 34.126 19.3264 33.7646 18.7813 33.1096C18.261 32.4844 17.9089 31.7678 17.7829 30.9566C17.7227 30.571 17.6794 30.1821 17.6448 29.7934C17.6065 29.3611 17.5804 28.9274 17.5607 28.494C17.5357 27.9436 17.5174 27.3932 17.5053 26.8428C17.4904 26.1661 17.4856 25.4894 17.476 24.8127L17.4743 24.7868C17.1301 24.9933 16.7918 25.2194 16.4329 25.4056C16.0127 25.6238 15.5562 25.7504 15.0834 25.7861C14.7128 25.8142 14.3373 25.8398 13.9683 25.8103C13.3633 25.7617 12.7589 25.6669 12.2172 25.369C11.9976 25.2481 11.7683 25.101 11.617 24.9078C11.2542 24.4448 11.428 23.8598 11.9751 23.5783C12.3531 23.3834 12.7657 23.3021 13.1754 23.2073C13.5315 23.1249 13.8859 23.0313 14.2332 22.9179C14.5769 22.8054 14.7938 22.5267 15.0078 22.2533L15.347 21.8171C15.2055 21.8022 15.0722 21.787 14.9389 21.7747C14.5342 21.7364 14.148 21.625 13.7787 21.4613C13.4626 21.3216 13.4578 21.3064 13.2261 21.5578C12.8391 21.978 12.4628 22.408 12.0836 22.8353C11.8046 23.1494 11.5273 23.4655 11.2497 23.7805C10.9747 24.0922 10.717 24.4215 10.4209 24.7115C9.981 25.1421 9.45084 25.4011 8.81831 25.3718C8.41247 25.3533 8.04094 25.211 7.70681 24.9784C7.01719 24.498 6.55256 23.8261 6.12956 23.1204C5.58759 22.2162 5.17162 21.2529 4.81556 20.2632C4.56919 19.5792 4.32169 18.8947 4.10653 18.2008C3.87281 17.4468 3.66778 16.6832 3.46613 15.9199C3.31369 15.3439 3.17841 14.7631 3.04931 14.1812C2.90278 13.5194 2.76188 12.8565 2.63756 12.1902C2.55375 11.7405 2.50509 11.2843 2.43731 10.8315C2.34591 10.2212 2.32903 9.60525 2.36222 8.99241C2.39175 8.44031 2.47106 7.88962 2.54981 7.34119C2.65894 6.58237 2.90897 5.86631 3.26869 5.19019C3.48891 4.77591 3.76228 4.39931 4.07841 4.04944C4.59731 3.47512 5.22534 3.06 5.92397 2.74838C6.41222 2.53069 6.92803 2.39963 7.45369 2.29725C8.23388 2.14538 9.02109 2.15128 9.80859 2.16759C10.1528 2.17462 10.4957 2.23734 10.8397 2.27138C11.5802 2.34506 12.3061 2.50088 13.0227 2.69325C13.545 2.83331 14.0566 3.01472 14.5747 3.17222C14.6267 3.18797 14.7029 3.18656 14.7454 3.15872C15.4474 2.70056 16.2146 2.39822 17.0305 2.22525C17.3402 2.15972 17.6597 2.13103 17.9764 2.11078C18.3614 2.08631 18.7495 2.06381 19.1337 2.08603C19.5955 2.11247 20.0551 2.18053 20.5141 2.24353C20.7368 2.27391 20.9542 2.35125 21.1776 2.37234C21.2844 2.38247 21.3978 2.30428 21.5108 2.27813C22.0871 2.14509 22.6609 1.99687 23.2422 1.89169C23.6751 1.8135 24.1172 1.77666 24.5573 1.75134C25.0481 1.72322 25.5426 1.70269 26.0331 1.72631C26.6532 1.75613 27.2689 1.84444 27.8767 1.98591C28.6296 2.16112 29.3518 2.41566 30.0383 2.76891C30.5513 3.03272 31.039 3.33872 31.4781 3.71503C31.7658 3.96197 32.0603 4.20581 32.3201 4.48088C32.6408 4.82006 32.9678 5.15953 33.1689 5.59406C33.3202 5.92172 33.4282 6.26091 33.4581 6.61978C33.4952 7.06584 33.5402 7.51359 33.536 7.96022C33.532 8.38744 33.4738 8.81437 33.4325 9.24047C33.3385 10.2119 33.1273 11.1622 32.8708 12.0999C32.6588 12.8745 32.411 13.6406 32.1427 14.3978C31.8954 15.0955 31.6102 15.7807 31.322 16.463C31.1091 16.9675 30.8798 17.4668 30.6307 17.9544C30.159 18.8786 29.6685 19.7933 29.1012 20.6637C29.0033 20.8142 28.9105 20.9683 28.8149 21.1219C29.0624 21.2889 29.3428 21.3477 29.6252 21.3781C29.8938 21.4073 30.1677 21.4248 30.436 21.4048C30.8655 21.373 31.2936 21.3117 31.7205 21.2518C32.1435 21.1927 32.5581 21.0724 32.9923 21.1042C33.426 21.1357 33.7362 21.4653 33.7067 21.8717V21.8717ZM27.5155 20.9287C27.3313 20.6907 27.1434 20.4556 26.9632 20.2148C26.6802 19.8368 26.4769 19.4147 26.2727 18.9906C26.0792 18.5887 25.8418 18.2081 25.6379 17.8107C25.2821 17.1174 24.9199 16.4264 24.5922 15.7196C24.1802 14.8317 23.8553 13.9123 23.753 12.9288C23.7097 12.5125 23.6987 12.0968 23.7828 11.6845C23.9175 11.0261 24.2615 10.5112 24.8397 10.1579C25.3761 9.83025 25.9737 9.7245 26.586 9.69131C26.966 9.67078 27.3476 9.68766 27.7419 9.68766L27.7287 9.621C27.4835 9.10828 27.2542 8.58684 26.9859 8.08622C26.6074 7.37972 26.1231 6.74269 25.5836 6.15206C25.184 5.71472 24.7511 5.30887 24.2769 4.95028C23.8106 4.59731 23.3193 4.28203 22.795 4.02412C22.1698 3.71672 21.5187 3.47906 20.8356 3.32747C20.1791 3.18178 19.5185 3.09263 18.8452 3.08531C18.2708 3.07913 17.7002 3.105 17.1408 3.23466C16.2965 3.43013 15.5242 3.77775 14.8522 4.34081C14.4771 4.65525 14.1497 5.00822 13.8631 5.40113C13.5267 5.86322 13.2553 6.36216 13.0233 6.88528C12.7049 7.60303 12.4864 8.35003 12.337 9.11784C12.2622 9.50062 12.2037 9.88678 12.1441 10.2727C12.1233 10.4077 12.1216 10.5458 12.1095 10.7004C12.2133 10.6464 12.2881 10.6048 12.3646 10.5677L12.6135 10.456C13.4553 10.071 14.3274 9.82322 15.2648 9.85162C15.6631 9.86372 16.0442 9.94247 16.3983 10.1168C17.0775 10.4518 17.4749 11.0213 17.6476 11.7422C17.7668 12.2397 17.8484 12.7471 17.9277 13.2531C17.9899 13.6482 18.0534 14.0476 18.0608 14.4461C18.0712 15.0286 18.0416 15.6122 18.0098 16.1944C17.9828 16.6905 17.8793 17.1788 17.7061 17.6417C17.3911 18.4835 17.0401 19.3115 16.7122 20.1485C16.6039 20.4249 16.5206 20.7113 16.4182 21.0153C16.5763 21.0153 16.7046 21.0142 16.8328 21.0158C16.8829 21.0167 16.9341 21.0181 16.9824 21.0296C17.3593 21.1185 17.6861 21.2892 17.9542 21.5792C18.3116 21.9651 18.4992 22.4153 18.5088 22.9365C18.5141 23.2253 18.4837 23.515 18.4852 23.8039C18.4911 25.1499 18.5012 26.496 18.5124 27.8418C18.5144 28.0617 18.5254 28.2819 18.5411 28.5016C18.574 28.9614 18.6072 29.4216 18.6522 29.8803C18.6837 30.2057 18.7276 30.5305 18.7791 30.8537C18.8519 31.3116 19.0603 31.7191 19.2968 32.1086C19.5005 32.4436 19.7651 32.7282 20.1139 32.9245C20.7065 33.2581 21.3446 33.2859 21.9878 33.163C22.4224 33.0801 22.849 32.9467 23.2709 32.8092C23.6869 32.6739 24.0626 32.4523 24.3782 32.1472C24.6738 31.8606 24.8836 31.5112 25.0251 31.1257C25.2996 30.3778 25.3851 29.5903 25.4987 28.809C25.5412 28.5165 25.578 28.2232 25.6168 27.9301C25.661 27.5965 25.7057 27.2632 25.7484 26.93C25.7799 26.6816 25.8086 26.4327 25.839 26.1844C25.8823 25.8277 25.9282 25.4714 25.9695 25.1145C26.0013 24.8386 26.0283 24.5616 26.0564 24.2851C26.0927 23.9318 26.1318 23.5786 26.163 23.2248C26.1872 22.9562 26.1773 22.6828 26.2249 22.4193C26.3123 21.9361 26.5407 21.5249 26.9691 21.2591C27.1482 21.148 27.3504 21.0749 27.5493 20.981L27.5155 20.9287V20.9287ZM11.3164 18.9453C11.1023 18.4385 10.9738 17.9103 10.9356 17.3641C10.8996 16.8508 10.9606 16.3395 11.0132 15.8285C11.0644 15.3335 11.1068 14.8362 11.1217 14.339C11.1465 13.5217 11.0914 12.7055 11.0523 11.8887C11.0287 11.4024 11.0852 10.9102 11.1285 10.4228C11.1676 9.98381 11.2162 9.54366 11.2992 9.11109C11.4384 8.38519 11.6232 7.66969 11.8859 6.97613C12.1354 6.31856 12.422 5.67816 12.8267 5.10159C13.104 4.70616 13.4187 4.33659 13.7211 3.95016L13.6313 3.91838C12.6475 3.60591 11.6477 3.36178 10.6194 3.25519C10.1332 3.20484 9.64519 3.17531 9.1575 3.14634C9.00788 3.13734 8.856 3.15759 8.70581 3.17194C8.334 3.20737 7.95769 3.22144 7.59178 3.29119C6.96909 3.40959 6.37172 3.60872 5.8185 3.933C5.32181 4.22409 4.90472 4.60041 4.55541 5.05181C4.16953 5.55019 3.90994 6.11381 3.72347 6.71484C3.50325 7.42387 3.39834 8.15344 3.36994 8.88975C3.34519 9.53522 3.33281 10.1843 3.44419 10.8273C3.52716 11.306 3.58256 11.7897 3.67397 12.2664C3.79856 12.9164 3.93216 13.565 4.08656 14.2082C4.30734 15.129 4.52784 16.0512 4.78941 16.9608C5.03972 17.8324 5.32209 18.6961 5.62809 19.5494C5.87841 20.2458 6.16781 20.9292 6.47269 21.6037C6.67125 22.043 6.91172 22.4657 7.16372 22.8772C7.43175 23.3139 7.73663 23.7285 8.15034 24.0455C8.67234 24.4457 9.0765 24.5078 9.60694 24.0688C9.83419 23.8807 10.0263 23.6483 10.224 23.427C10.5382 23.0754 10.8413 22.7143 11.1541 22.3616C11.5523 21.9122 11.9557 21.4675 12.3559 21.0203C12.4405 20.9258 12.5218 20.8285 12.6042 20.7329L12.4681 20.6134C11.9706 20.1355 11.5853 19.5815 11.3164 18.9453V18.9453ZM26.4161 5.5665C26.7413 5.94787 27.056 6.3405 27.3468 6.74888C27.9093 7.53891 28.3587 8.39194 28.6898 9.30459C28.8363 9.70678 28.9533 10.1129 28.901 10.5531C28.8647 10.8613 28.8678 11.1741 28.8405 11.484C28.8177 11.7419 28.7769 11.9984 28.7435 12.2555C28.6934 12.643 28.6208 13.0295 28.5992 13.4187C28.5787 13.7891 28.6 14.1635 28.6234 14.5347C28.647 14.9119 28.6979 15.2873 28.7325 15.6639C28.7716 16.0909 28.8242 16.5178 28.8363 16.9456C28.8461 17.2969 28.8149 17.6504 28.7843 18.0011C28.7477 18.4236 28.6405 18.8325 28.4808 19.2248C28.3686 19.501 28.2344 19.7688 28.1076 20.0453L28.1585 20.0992L28.2358 20.1592L28.3137 20.0197C28.9716 18.9824 29.5568 17.9052 30.0637 16.7872C30.3896 16.0672 30.6951 15.3371 30.9881 14.6031C31.4449 13.4601 31.8063 12.285 32.0858 11.0866C32.2113 10.5486 32.3072 10.0024 32.3924 9.45619C32.4588 9.02925 32.5142 8.59725 32.5266 8.16637C32.5398 7.70934 32.5145 7.24866 32.4723 6.79275C32.4408 6.4485 32.3558 6.102 32.1401 5.82216C31.7933 5.37159 31.419 4.94072 30.9586 4.59984C30.571 4.31269 30.1849 4.01822 29.7689 3.77663C29.1094 3.39413 28.3956 3.13931 27.6497 2.96578C26.9218 2.79619 26.1844 2.72306 25.4422 2.70759C25.0045 2.69831 24.5649 2.74528 24.1282 2.78634C23.7324 2.82347 23.3393 2.88675 22.9407 2.93906C23.3682 3.17953 23.7898 3.39328 24.1875 3.64528C25.0237 4.17488 25.7729 4.81219 26.4161 5.5665V5.5665ZM15.5528 20.3946C15.8231 19.5303 16.1913 18.7051 16.5479 17.8748C16.837 17.2015 16.9951 16.4922 17.0477 15.7638C17.0738 15.4046 17.0665 15.041 17.0488 14.6807C17.0288 14.2805 16.9968 13.8791 16.9386 13.4828C16.8638 12.9763 16.7785 12.4695 16.6587 11.9723C16.5288 11.4342 16.2011 11.0596 15.6398 10.9215C15.2978 10.8374 14.958 10.8408 14.6123 10.8953C13.768 11.0284 12.9952 11.3394 12.2752 11.7951C12.1303 11.8867 12.0507 11.9607 12.0758 12.1686C12.1286 12.6087 12.1402 13.0559 12.1382 13.5003C12.1354 14.1292 12.1087 14.758 12.0847 15.3866C12.0769 15.5914 12.0473 15.795 12.0254 15.9989C11.9917 16.3111 11.9267 16.623 11.9287 16.9346C11.9306 17.2558 11.9635 17.5846 12.0414 17.8957C12.2889 18.882 12.8132 19.6892 13.6724 20.2587C14.2009 20.6089 14.7856 20.7855 15.4274 20.819C15.471 20.6716 15.5098 20.5324 15.5528 20.3946ZM14.5443 11.9326C14.4312 11.6952 14.4959 11.4986 14.758 11.4075C14.8219 11.385 14.8877 11.3611 14.9541 11.3546C15.0452 11.3456 15.138 11.3524 15.2303 11.3524C15.5627 11.3541 15.8825 11.4005 16.157 11.612C16.333 11.7475 16.3803 11.9275 16.2664 12.1123C16.1047 12.3744 15.858 12.5061 15.5551 12.5314C15.0778 12.571 14.7428 12.3486 14.5443 11.9326ZM27.7743 11.846C27.8125 11.5298 27.8432 11.2129 27.8823 10.8967C27.898 10.7696 27.8311 10.7353 27.7245 10.7322C27.3892 10.7229 27.054 10.7111 26.7188 10.7049C26.3408 10.6982 25.9729 10.7589 25.623 10.9027C25.2349 11.0624 24.9393 11.3183 24.8186 11.7408C24.7286 12.0558 24.7044 12.3705 24.7362 12.6998C24.7846 13.2019 24.896 13.689 25.0717 14.1556C25.3063 14.7803 25.5518 15.4046 25.8452 16.0031C26.2426 16.8134 26.6923 17.5978 27.1145 18.3957C27.2272 18.6086 27.322 18.8308 27.4396 19.0794C27.6857 18.5583 27.8058 18.0366 27.8196 17.4982C27.8311 17.0454 27.7948 16.5907 27.7684 16.1376C27.7518 15.8602 27.7127 15.5846 27.6857 15.3079C27.648 14.9223 27.5909 14.537 27.5822 14.1505C27.5735 13.7576 27.6013 13.3625 27.6351 12.9701C27.6668 12.5938 27.729 12.2206 27.7743 11.846V11.846ZM27.018 11.5417C26.8934 11.8856 26.6271 12.0797 26.2817 12.1368C25.9597 12.1897 25.6776 12.0707 25.4678 11.8139C25.3184 11.6311 25.3755 11.4145 25.5994 11.2911C25.8564 11.1487 26.1391 11.1128 26.4724 11.0911C26.5629 11.1077 26.6993 11.1215 26.829 11.1586C27.0172 11.2117 27.0866 11.3532 27.018 11.5417ZM17.0556 22.1335C16.8713 21.9831 16.6278 21.9743 16.4526 22.1394C16.2352 22.3448 16.0439 22.5796 15.8527 22.8111C15.6319 23.0785 15.4249 23.3567 15.14 23.564C14.7254 23.8652 14.2422 23.9901 13.7565 24.1082C13.3703 24.2021 12.9825 24.2893 12.5952 24.3796L12.5904 24.4297C12.7055 24.4828 12.8168 24.5492 12.9367 24.5872C13.5273 24.7742 14.128 24.8673 14.7521 24.8144C15.2027 24.7762 15.6319 24.678 16.0386 24.4851C16.5983 24.2198 17.0288 23.7997 17.395 23.3108C17.4563 23.2293 17.4842 23.1086 17.4915 23.0034C17.5165 22.6319 17.3278 22.3557 17.0556 22.1335V22.1335ZM31.6105 22.2815C31.1352 22.3324 30.6593 22.3864 30.1826 22.4137C29.9526 22.4269 29.7191 22.383 29.4868 22.3642C29.0973 22.3327 28.717 22.246 28.3877 22.0379C28.197 21.9178 28.0387 21.9043 27.8362 21.9724C27.547 22.0697 27.3111 22.2176 27.2413 22.5309C27.1938 22.7427 27.1766 22.9621 27.1575 23.1789C27.1538 23.2172 27.2017 23.2875 27.2382 23.2971C27.4613 23.3558 27.6854 23.4253 27.9135 23.4458C28.1936 23.4712 28.4788 23.463 28.7609 23.4489C29.0655 23.4338 29.3721 23.4141 29.6722 23.3634C30.3795 23.2447 31.0638 23.0512 31.6716 22.6502C31.8907 22.5053 32.1078 22.3574 32.3255 22.2109L32.3075 22.1799C32.0752 22.2145 31.844 22.2567 31.6105 22.2815V22.2815Z" fill="#336791"/>
</svg>
