<svg width="36" height="36" viewBox="0 0 36 36" fill="none" xmlns="http://www.w3.org/2000/svg">
<path d="M18 21.2063C19.7708 21.2063 21.2063 19.7708 21.2063 18C21.2063 16.2292 19.7708 14.7938 18 14.7938C16.2292 14.7938 14.7938 16.2292 14.7938 18C14.7938 19.7708 16.2292 21.2063 18 21.2063Z" fill="#61DAFB"/>
<path d="M30.1781 12.7125C29.5594 12.4875 28.9125 12.2625 28.2375 12.0656C28.4062 11.3906 28.5469 10.7156 28.6594 10.0688C29.25 6.35626 28.6031 3.74064 26.8031 2.72814C26.2687 2.41876 25.6781 2.27814 25.0031 2.27814C23.0344 2.27814 20.5312 3.74064 18 6.18751C15.4687 3.74064 12.9656 2.27814 10.9969 2.27814C10.3219 2.27814 9.73124 2.41876 9.19686 2.72814C7.39686 3.76876 6.74999 6.38439 7.34061 10.0688C7.45311 10.7156 7.59374 11.3906 7.76249 12.0656C7.08749 12.2625 6.44061 12.4594 5.82186 12.7125C2.30624 14.0625 0.393738 15.9188 0.393738 18C0.393738 20.0813 2.33436 21.9375 5.82186 23.2875C6.44061 23.5125 7.08749 23.7375 7.76249 23.9344C7.59374 24.6094 7.45311 25.2844 7.34061 25.9313C6.74999 29.6438 7.39686 32.2594 9.19686 33.2719C9.73124 33.5813 10.3219 33.7219 10.9969 33.7219C12.9937 33.7219 15.4969 32.2594 18 29.8125C20.5312 32.2594 23.0344 33.7219 25.0031 33.7219C25.6781 33.7219 26.2687 33.5813 26.8031 33.2719C28.6031 32.2313 29.25 29.6156 28.6594 25.9313C28.5469 25.2844 28.4062 24.6094 28.2375 23.9344C28.9125 23.7375 29.5594 23.5406 30.1781 23.2875C33.6937 21.9375 35.6062 20.0813 35.6062 18C35.6062 15.9188 33.6937 14.0625 30.1781 12.7125ZM26.0156 4.13439C27.1687 4.80939 27.5625 6.89064 27.0844 9.84376C27 10.4344 26.8594 11.0531 26.6906 11.7C25.2281 11.3625 23.6812 11.1375 22.05 10.9969C21.0937 9.64689 20.1094 8.43751 19.125 7.34064C21.2062 5.28751 23.3156 3.88126 25.0312 3.88126C25.3969 3.88126 25.7344 3.96564 26.0156 4.13439V4.13439ZM22.8656 20.8125C22.3594 21.7125 21.7687 22.6125 21.15 23.5125C20.1094 23.5969 19.0687 23.625 18 23.625C16.9031 23.625 15.8625 23.5969 14.85 23.5125C14.2312 22.6125 13.6687 21.7125 13.1625 20.8125C12.6281 19.8844 12.1219 18.9281 11.6719 18C12.1219 17.0719 12.6281 16.1156 13.1625 15.1875C13.6687 14.2875 14.2594 13.3875 14.8781 12.4875C15.9187 12.4031 16.9594 12.375 18.0281 12.375C19.125 12.375 20.1656 12.4031 21.1781 12.4875C21.7969 13.3875 22.3594 14.2875 22.8656 15.1875C23.4 16.1156 23.9062 17.0719 24.3562 18C23.8781 18.9281 23.4 19.8563 22.8656 20.8125ZM25.2 19.8844C25.6219 20.8688 25.9594 21.825 26.2687 22.7813C25.3125 23.0063 24.3 23.175 23.2312 23.3156C23.5687 22.7813 23.9344 22.2188 24.2437 21.6281C24.5812 21.0375 24.8906 20.4469 25.2 19.8844ZM18 27.5063C17.325 26.775 16.6781 25.9875 16.0594 25.1719C16.7062 25.2 17.3531 25.2281 18 25.2281C18.6469 25.2281 19.2937 25.2 19.9406 25.1719C19.3219 25.9875 18.675 26.775 18 27.5063ZM12.7687 23.2875C11.7 23.1469 10.6875 22.9781 9.73124 22.7531C10.0406 21.825 10.3781 20.8406 10.8 19.8563C11.1094 20.4188 11.4187 21.0094 11.7562 21.5719C12.0937 22.1906 12.4312 22.725 12.7687 23.2875V23.2875ZM10.8 16.1156C10.3781 15.1313 10.0406 14.175 9.73124 13.2188C10.6875 12.9938 11.7 12.825 12.7687 12.6844C12.4312 13.2188 12.0656 13.7813 11.7562 14.3719C11.4187 14.9625 11.1094 15.5531 10.8 16.1156V16.1156ZM18 8.49376C18.675 9.22501 19.3219 10.0125 19.9406 10.8281C19.2937 10.8 18.6469 10.7719 18 10.7719C17.3531 10.7719 16.7062 10.8 16.0594 10.8281C16.6781 10.0125 17.325 9.22501 18 8.49376V8.49376ZM24.2437 14.4L23.2312 12.7125C24.3 12.8531 25.3125 13.0219 26.2687 13.2469C25.9594 14.175 25.6219 15.1594 25.2 16.1438C24.8906 15.5531 24.5812 14.9625 24.2437 14.4V14.4ZM8.91561 9.84376C8.43749 6.89064 8.83124 4.80939 9.98436 4.13439C10.2656 3.96564 10.6031 3.88126 10.9687 3.88126C12.6562 3.88126 14.7656 5.25939 16.875 7.34064C15.8906 8.40939 14.9062 9.64689 13.95 10.9969C12.3187 11.1375 10.7719 11.3906 9.30936 11.7C9.14061 11.0531 9.02811 10.4344 8.91561 9.84376ZM1.96874 18C1.96874 16.6781 3.57186 15.2719 6.38436 14.2313C6.94686 14.0063 7.56561 13.8094 8.18436 13.6406C8.63436 15.0469 9.19686 16.5375 9.87186 18.0281C9.19686 19.5188 8.60624 20.9813 8.18436 22.3875C4.30311 21.2625 1.96874 19.575 1.96874 18V18ZM9.98436 31.8656C8.83124 31.1906 8.43749 29.1094 8.91561 26.1563C8.99999 25.5656 9.14061 24.9469 9.30936 24.3C10.7719 24.6375 12.3187 24.8625 13.95 25.0031C14.9062 26.3531 15.8906 27.5625 16.875 28.6594C14.7937 30.7125 12.6844 32.1188 10.9687 32.1188C10.6031 32.1188 10.2656 32.0344 9.98436 31.8656ZM27.0844 26.1563C27.5625 29.1094 27.1687 31.1906 26.0156 31.8656C25.7344 32.0344 25.3969 32.1188 25.0312 32.1188C23.3437 32.1188 21.2344 30.7406 19.125 28.6594C20.1094 27.5906 21.0937 26.3531 22.05 25.0031C23.6812 24.8625 25.2281 24.6094 26.6906 24.3C26.8594 24.9469 26.9719 25.5656 27.0844 26.1563V26.1563ZM29.6156 21.7688C29.0531 21.9938 28.4344 22.1906 27.8156 22.3594C27.3656 20.9531 26.8031 19.4625 26.1281 17.9719C26.8031 16.4813 27.3937 15.0188 27.8156 13.6125C31.6969 14.7375 34.0312 16.425 34.0312 18C34.0312 19.3219 32.4 20.7281 29.6156 21.7688V21.7688Z" fill="#61DAFB"/>
</svg>
