<svg width="36" height="36" viewBox="0 0 36 36" fill="none" xmlns="http://www.w3.org/2000/svg">
<g clip-path="url(#clip0_9_148)">
<path d="M12.228 5.56653C13.5765 3.86253 16.116 3.02103 17.847 2.97753C22.701 2.88453 24.7245 8.99703 24.8805 11.427L27.1275 12.108C26.61 4.65903 22.0275 0.751526 17.643 0.751526C13.5315 0.750026 9.73502 3.77103 8.20502 8.20053C6.11552 14.106 7.48652 19.7835 10.0485 24.327C9.82502 24.6225 9.69002 25.143 9.73502 25.6425C9.77852 27.006 10.9245 28.1415 12.297 28.1415H12.387C12.7266 28.1318 13.0608 28.0543 13.37 27.9135C13.6792 27.7727 13.9571 27.5715 14.1874 27.3218C14.4178 27.0721 14.5958 26.7788 14.7112 26.4592C14.8265 26.1397 14.8768 25.8003 14.859 25.461C14.859 24.0975 13.6905 22.965 12.3195 22.965H12.228C12.138 22.965 12.0045 22.965 11.8905 23.0085C10.026 19.8285 9.23852 16.4205 9.53252 12.744C9.71102 9.97203 10.611 7.56453 12.228 5.56653V5.56653Z" fill="#6C4EB0"/>
<path d="M1.398 31.347C2.904 33.618 5.9835 35.07 9.354 35.07C10.2525 35.07 11.1975 35.004 12.1185 34.776C17.9625 33.6405 22.3905 30.0975 24.93 24.8745L24.951 24.828C26.2545 24.714 27.2655 23.5545 27.1995 22.1685C27.1305 20.7825 26.007 19.671 24.6375 19.671H24.546C23.1315 19.7175 22.029 20.9205 22.074 22.353C22.119 23.079 22.413 23.67 22.815 24.1005C21.243 27.1905 18.8835 29.46 15.309 31.3695C12.9045 32.64 10.365 33.1185 7.893 32.778C5.826 32.484 4.209 31.5495 3.219 30.0525C1.737 27.78 1.602 25.329 2.8365 22.8765C3.738 21.105 5.085 19.8105 5.985 19.173C5.76 18.5835 5.49 17.5845 5.355 16.836C-1.3005 21.6495 -0.623997 28.2345 1.398 31.347V31.347Z" fill="#6C4EB0"/>
<path d="M35.1975 30.345C36.5445 27.6195 36.4335 23.0325 32.994 19.1025L32.973 19.1475C29.4915 15.0135 24.366 12.7425 18.5205 12.7425H17.7555C17.376 11.9025 16.5 11.379 15.51 11.379H15.4425C14.028 11.379 12.9255 12.6075 12.972 14.037C13.017 15.399 14.163 16.536 15.534 16.536H15.645C16.1328 16.5152 16.6042 16.3541 17.0028 16.0721C17.4013 15.7901 17.7101 15.3991 17.892 14.946H18.7245C22.188 14.946 25.467 15.9675 28.458 17.9655C30.7485 19.488 32.391 21.486 33.312 23.871C34.119 25.824 34.0755 27.732 33.2445 29.3235C31.9635 31.821 29.805 33.1395 26.952 33.1395C25.1535 33.1395 23.4015 32.571 22.5015 32.163C21.963 32.6145 21.063 33.3645 20.4105 33.8205C22.3875 34.7265 24.3885 35.25 26.3205 35.25C30.7035 35.25 33.96 32.754 35.1975 30.345V30.345Z" fill="#6C4EB0"/>
</g>
<defs>
<clipPath id="clip0_9_148">
<rect width="36" height="36" fill="white"/>
</clipPath>
</defs>
</svg>
