<svg width="36" height="36" viewBox="0 0 36 36" fill="none" xmlns="http://www.w3.org/2000/svg">
<path d="M28.6425 11.7338V24.1875L18.0506 30.465L17.955 30.5522V35.2125L18.0506 35.3025L32.9569 26.685V9.315L32.8163 9.28125L28.5975 11.6325L28.62 11.7338" fill="#2F406A"/>
<path d="M7.42499 24.3L18.0506 30.465V35.3025L3.03186 26.6512V9.34873L3.18655 9.32623L7.37999 11.7647L7.42499 11.9053V24.3" fill="#2379BD"/>
<path d="M7.42499 11.9025L3.03186 9.34876L18.0169 0.69751L32.9681 9.31501L28.6425 11.7338L18.0169 5.67001L7.42499 11.9025Z" fill="#03AFEF"/>
<path d="M17.8678 22.8741L17.7525 22.756V18.076L17.8678 18.0169L17.8959 17.9016L21.9094 15.5616L22.0331 15.5897V20.4131L17.8706 22.8769" fill="#2F406A"/>
<path d="M13.635 20.5622V15.5531H13.7503L17.8313 17.9297L17.865 18.0225V22.874L13.635 20.5622Z" fill="#2379BD"/>
<path d="M17.8003 13.0894L13.635 15.5531L17.8678 18.0169L22.0303 15.5869L17.8003 13.0894Z" fill="#03AFEF"/>
<path d="M12.6872 25.9285L12.5719 25.8103V21.1303L12.6872 21.0713L12.7153 20.956L16.7288 18.616L16.8525 18.6441V23.4647L12.69 25.9285" fill="#2F406A"/>
<path d="M8.45435 23.625V18.6075H8.56966L12.6562 20.9784L12.69 21.0712V25.9284L8.45435 23.625Z" fill="#2379BD"/>
<path d="M12.6168 16.1437L8.45435 18.6075L12.6872 21.0712L16.8497 18.6412L12.6168 16.1437Z" fill="#03AFEF"/>
<path d="M23.4197 26.0438L23.3044 25.9256V21.2456L23.4197 21.1866L23.4478 21.0713L27.4613 18.7313L27.585 18.7594V23.58L23.4197 26.0438Z" fill="#2F406A"/>
<path d="M19.1869 23.7319V18.7228H19.3022L23.386 21.0938L23.4197 21.1866V26.0438L19.1869 23.7319Z" fill="#2379BD"/>
<path d="M23.3438 16.259L19.1813 18.7228L23.4141 21.1865L27.5766 18.7565L23.3438 16.259Z" fill="#03AFEF"/>
<path d="M18.2391 29.0981L18.1238 28.98V24.3L18.2391 24.241L18.2672 24.1256L22.2807 21.7856L22.4044 21.8138V26.6344L18.2419 29.0981" fill="#2F406A"/>
<path d="M14.0062 26.7834V21.7772H14.1215L18.2025 24.1537L18.2362 24.2465V29.1037L14.0062 26.7834Z" fill="#2379BD"/>
<path d="M18.1687 19.3134L14.0062 21.7772L18.239 24.2409L22.4015 21.8109L18.1687 19.3134Z" fill="#03AFEF"/>
<path d="M17.8678 16.2366L17.7525 16.1185V11.4385L17.8678 11.3794L17.8959 11.2641L21.9094 8.92126L22.0331 8.94939V13.7813L17.8706 16.245" fill="#2F406A"/>
<path d="M13.635 13.9219V8.91565H13.7503L17.8313 11.2922L17.865 11.385V16.2366L13.635 13.9219Z" fill="#2379BD"/>
<path d="M17.8003 6.4519L13.635 8.91565L17.8678 11.3794L22.0303 8.9494L17.8003 6.4519Z" fill="#03AFEF"/>
<path d="M12.6872 19.291L12.5719 19.1728V14.4928L12.6872 14.4338L12.7153 14.3185L16.7288 11.9785L16.8525 12.0066V16.8272L12.69 19.291" fill="#2F406A"/>
<path d="M8.45435 16.9762V11.9672H8.56966L12.6562 14.3437L12.69 14.4365V19.2909L8.45435 16.9762Z" fill="#2379BD"/>
<path d="M12.6168 9.50623L8.45435 11.97L12.6872 14.4337L16.8497 12.0037L12.6168 9.50623Z" fill="#03AFEF"/>
<path d="M23.4197 19.4062L23.3044 19.2881V14.6081L23.4197 14.5491L23.4478 14.4337L27.4613 12.0938L27.585 12.1219V16.9425L23.4197 19.4062Z" fill="#2F406A"/>
<path d="M19.1869 17.0916V12.0938H19.3022L23.3831 14.4703L23.4169 14.5631V19.4062L19.1869 17.0916Z" fill="#2379BD"/>
<path d="M23.3438 9.62158L19.1869 12.0938L23.4197 14.5575L27.5822 12.1275L23.3438 9.62158Z" fill="#03AFEF"/>
<path d="M18.2391 22.4578L18.1238 22.3397V17.6597L18.2391 17.6006L18.2672 17.4853L22.2807 15.1453L22.4044 15.1735V19.9941L18.2419 22.4578" fill="#2F406A"/>
<path d="M14.0062 20.146V15.1369H14.1215L18.2025 17.5135L18.2362 17.6063V22.4578L14.0062 20.146Z" fill="#2379BD"/>
<path d="M18.1687 12.6731L14.0062 15.1368L18.239 17.6006L22.4015 15.1706L18.1687 12.6731Z" fill="#03AFEF"/>
</svg>
